<?xml version="1.0" encoding="utf-8"?>
<!-- Generator: Adobe Illustrator 27.0.0, SVG Export Plug-In . SVG Version: 6.00 Build 0)  -->
<svg version="1.1" id="Layer_1" xmlns="http://www.w3.org/2000/svg" xmlns:xlink="http://www.w3.org/1999/xlink" x="0px" y="0px"
	 viewBox="0 0 485.42 103.53" style="enable-background:new 0 0 485.42 103.53;" xml:space="preserve">
<style type="text/css">
	.st0{fill:#FFFFFF;}
	.st1{fill:#16A34A;}
	.st2{fill:#FFFFFF;}
</style>
	<g>
	<path class="st0" d="M31.64,10.26H9.33v63.55h12.06v-19.8h10.25c17.05,0,26.95-9.05,26.95-21.88
		C58.59,19.3,48.69,10.26,31.64,10.26z M31.73,43.24H21.39V21.12h10.34c9.99,0,14.89,3.78,14.89,11.02
		C46.62,39.37,41.72,43.24,31.73,43.24z"/>
		<path class="st0" d="M92.51,26.63c-5.86,0-10.77,3.44-13.09,8.61v-7.76H67.71v46.33h11.71V50.47c0-7.57,5.25-13,12.83-13
		c1.97,0,3.87,0.26,5.51,0.69V27.39C96.39,26.89,94.66,26.63,92.51,26.63z"/>
		<path class="st0" d="M208.39,50.47l18.77-22.99h-13.44l-11.89,14.99l-11.87-14.99h-13.7l18.69,22.99l-18.95,23.34h13.44
		l12.14-15.32l12.15,15.32h13.69L208.39,50.47z"/>
		<path class="st0" d="M268.57,27.48l-13.09,32.3l-13.69-32.3h-12.66l20.67,46.33l-0.35,0.86c-2.51,6.12-5.6,8.28-10.34,8.28
		c-2.32,0-4.65-0.52-6.97-1.46l-2.67,9.47c2.84,1.38,6.8,2.32,10.5,2.32c4.22,0,8.02-1.38,11.37-4.13
		c3.36-2.67,6.55-7.49,9.57-14.47l20.06-47.19H268.57z"/>
		<path class="st1" d="M466.96,51.7V11.49h-12.15l-30.73,40.9v9.48h31.52v14.29h11.37V61.86h9.12V51.7H466.96z M455.6,51.7h-18.95
		l18.95-25.15V51.7z M408.41,29.83l-13.35,32.12l-13.43-32.12h-12.66l20.05,46.33h11.71l20.06-46.33H408.41z M337.64,12.6h-22.31
		v63.55h12.06v-19.8h10.25c17.05,0,26.95-9.05,26.95-21.88C364.59,21.65,354.68,12.6,337.64,12.6z M337.72,45.58h-10.34V23.46h10.34
		c9.99,0,14.89,3.78,14.89,11.02S347.71,45.58,337.72,45.58z M290.88,12.6v63.55h12.14V12.6H290.88z"/>
		<path class="st1" d="M169.18,44.51h-10.99c1.27-4.7,1.74-8.98,1.89-12.07h-41.26c0.14,3.09,0.58,7.38,1.82,12.07h-10.91
		c-2.08-9.58-1.54-17.12-1.48-17.81l0.38-4.89h61.63l0.41,4.89C170.74,27.38,171.27,34.93,169.18,44.51z"/>
		<path class="st0" d="M166.24,54.25c-3.92,9.91-11.14,20.3-24.41,26.91l-2.37,1.19l-2.37-1.19c-13.25-6.61-20.49-16.99-24.42-26.91
		h11.65c3.08,6.01,7.83,11.86,15.14,16.13c7.25-4.24,11.97-10.11,15.04-16.13H166.24z"/>
</g>
</svg>
